<svg width="512" height="512" version="1.1" xmlns="http://www.w3.org/2000/svg" desc="Created with imagetracer.js version 1.2.6" ><path fill="rgb(185,163,134)" stroke="rgb(185,163,134)" stroke-width="1" opacity="0.9882352941176471" d="M 314.5 70 L 324 75.5 L 321 76 L 276.5 149 Q 265.9 138.1 266 116.5 Q 268.5 115 267 109.5 L 273 94.5 L 283.5 82 L 299.5 73 L 314.5 70 Z " /><path fill="rgb(185,163,134)" stroke="rgb(185,163,134)" stroke-width="1" opacity="0.9882352941176471" d="M 134.5 106 L 133 108.5 L 135 110.5 L 188 181.5 L 160.5 198 L 69 146 L 70.5 143 L 118.5 115 L 131.5 109 L 134.5 106 Z " /><path fill="rgb(185,163,134)" stroke="rgb(185,163,134)" stroke-width="1" opacity="0.9882352941176471" d="M 446.5 151 L 447 210 L 365.5 211 L 355.5 213 L 355 204.5 L 446.5 151 Z " /><path fill="rgb(185,163,134)" stroke="rgb(185,163,134)" stroke-width="1" opacity="0.9882352941176471" d="M 445.5 263 L 447 263.5 L 447 353 L 438.5 353 L 434.5 351 L 434.5 353 L 428.5 353 Q 426.5 349.5 420.5 350 L 419.5 351 L 407.5 351 L 405.5 349 Q 397.5 351 395.5 347 Q 394 349.5 392.5 346 L 388 346.5 L 391 348.5 L 387.5 349 L 386 348.5 L 393 363.5 L 395 378.5 L 391.5 393 L 325 333.5 L 327.5 330 L 351.5 316 L 360.5 313 L 445.5 263 Z " /><path fill="rgb(185,163,134)" stroke="rgb(185,163,134)" stroke-width="1" opacity="0.9882352941176471" d="M 65 294 L 78.5 295 L 79.5 296 L 87.5 296 L 88.5 297 L 96.5 297 L 97.5 298 L 105.5 298 L 106.5 299 L 133.5 301 L 134.5 302 L 142.5 302 L 146 303.5 L 136.5 314 L 120.5 322 L 115.5 323 L 98.5 323 Q 79.3 318.7 69 305.5 L 65 299.5 L 65 294 Z " /><path fill="rgb(185,163,134)" stroke="rgb(185,163,134)" stroke-width="1" opacity="0.9882352941176471" d="M 221 352 L 252 369.5 L 251.5 476 L 183 435.5 L 217 363.5 L 221 352 Z " /><path fill="rgb(161,139,113)" stroke="rgb(161,139,113)" stroke-width="1" opacity="0.9921568627450981" d="M 255 36 L 257 36.5 L 256.5 38 L 263.5 40 L 310 67.5 Q 311.1 70.8 308.5 70 L 297.5 73 L 280 84 L 273 93.5 L 268 103.5 L 266 112.5 L 247.5 133 L 249 130.5 L 254 121.5 L 251 123.5 L 242.5 134 L 184 99.5 L 187.5 94 L 197 85.5 L 197.5 84 L 199 84.5 L 204.5 78 L 210 73.5 L 218.5 64 L 219.5 65 L 224 60.5 L 233.5 50 L 234.5 51 L 238.5 47 L 242 45.5 L 241.5 44 L 243.5 44 L 247 43 L 248.5 40 L 250 40.5 Q 249.1 37.5 253.5 39 L 255 36 Z " /><path fill="rgb(161,139,113)" stroke="rgb(161,139,113)" stroke-width="1" opacity="0.9921568627450981" d="M 156.5 280 L 157 313.5 L 156 314.5 L 156 405 L 152 405.5 L 156 407.5 L 143 409 Q 144.1 411.7 141.5 411 L 140 411.5 L 140.5 410 L 136.5 408 L 135 408.5 L 134.5 407 L 133 407.5 L 133.5 406 L 129.5 404 L 128 404.5 L 127.5 403 L 126.5 404 L 122.5 400 Q 121 402.5 119.5 399 L 65 367.5 L 65.5 302 L 75.5 313 Q 83.5 320 95.5 323 L 114.5 324 Q 135.3 319.8 146 305.5 Q 154.6 296.1 156.5 280 Z " /><path fill="rgb(166,138,101)" stroke="rgb(166,138,101)" stroke-width="1" opacity="0.9803921568627451" d="M 164.5 89 L 165.5 91 L 164.5 89 Z " /><path fill="rgb(166,138,101)" stroke="rgb(166,138,101)" stroke-width="1" opacity="0.9803921568627451" d="M 183.5 104 L 184.5 106 L 183.5 104 Z " /><path fill="rgb(166,138,101)" stroke="rgb(166,138,101)" stroke-width="1" opacity="0.9803921568627451" d="M 197.5 115 L 198.5 117 L 197.5 115 Z " /><path fill="rgb(166,138,101)" stroke="rgb(166,138,101)" stroke-width="1" opacity="0.9803921568627451" d="M 397.5 118 L 443 144.5 L 356.5 195 L 360 190.5 L 402 121.5 Q 397.7 120.6 397.5 118 Z " /><path fill="rgb(166,138,101)" stroke="rgb(166,138,101)" stroke-width="1" opacity="0.9803921568627451" d="M 207.5 123 L 208.5 125 L 207.5 123 Z " /><path fill="rgb(166,138,101)" stroke="rgb(166,138,101)" stroke-width="1" opacity="0.9803921568627451" d="M 211.5 126 L 213.5 129 L 211.5 126 Z " /><path fill="rgb(166,138,101)" stroke="rgb(166,138,101)" stroke-width="1" opacity="0.9803921568627451" d="M 216.5 130 L 217.5 132 L 216.5 130 Z " /><path fill="rgb(166,138,101)" stroke="rgb(166,138,101)" stroke-width="1" opacity="0.9803921568627451" d="M 221.5 134 L 222.5 136 L 221.5 134 Z " /><path fill="rgb(166,138,101)" stroke="rgb(166,138,101)" stroke-width="1" opacity="0.9803921568627451" d="M 225.5 137 L 242 150.5 L 235.5 155 L 235 153 L 237 152.5 L 225.5 137 Z " /><path fill="rgb(166,138,101)" stroke="rgb(166,138,101)" stroke-width="1" opacity="0.9803921568627451" d="M 65.5 151 L 157 204.5 L 156.5 206 L 156 204 L 145.5 201 L 137.5 201 L 136.5 200 L 128.5 200 L 127.5 199 L 119.5 199 L 118.5 198 L 110.5 198 L 109.5 197 L 65 193 L 65.5 151 Z " /><path fill="rgb(166,138,101)" stroke="rgb(166,138,101)" stroke-width="1" opacity="0.9803921568627451" d="M 354.5 195 L 353.5 197 L 351.5 198 L 349 196.5 L 350.5 196 L 352.5 196 L 354.5 195 Z " /><path fill="rgb(166,138,101)" stroke="rgb(166,138,101)" stroke-width="1" opacity="0.9803921568627451" d="M 355.5 265 L 356 267 L 434.5 266 L 434.5 267 L 355 298 L 355.5 265 Z " /><path fill="rgb(166,138,101)" stroke="rgb(166,138,101)" stroke-width="1" opacity="0.9803921568627451" d="M 170 323 Q 174.9 322.9 177 326.5 Q 170.7 334.7 167.5 346 L 167 343.5 L 168 342.5 L 170 323 Z " /><path fill="rgb(166,138,101)" stroke="rgb(166,138,101)" stroke-width="1" opacity="0.9803921568627451" d="M 166.5 350 L 167 352.5 L 166 352.5 L 166.5 350 Z " /><path fill="rgb(166,138,101)" stroke="rgb(166,138,101)" stroke-width="1" opacity="0.9803921568627451" d="M 165.5 357 L 166 359.5 L 165 359.5 L 165.5 357 Z " /><path fill="rgb(166,138,101)" stroke="rgb(166,138,101)" stroke-width="1" opacity="0.9803921568627451" d="M 260.5 413 L 295.5 445 L 301.5 450 L 303.5 450 L 305.5 449 L 305.5 450 L 260.5 476 L 260.5 413 Z " /><path fill="rgb(176,152,119)" stroke="rgb(176,152,119)" stroke-width="1" opacity="0.9921568627450981" d="M 309.5 70 L 314 70.5 L 309.5 71 L 309.5 70 Z " /><path fill="rgb(176,152,119)" stroke="rgb(176,152,119)" stroke-width="1" opacity="0.9921568627450981" d="M 304.5 71 L 307 71.5 L 304.5 72 L 304.5 71 Z " /><path fill="rgb(176,152,119)" stroke="rgb(176,152,119)" stroke-width="1" opacity="0.9921568627450981" d="M 297.5 73 L 299 73.5 L 295.5 75 L 295.5 74 L 297.5 73 Z " /><path fill="rgb(176,152,119)" stroke="rgb(176,152,119)" stroke-width="1" opacity="0.9921568627450981" d="M 291.5 76 L 290.5 78 L 288.5 79 L 289.5 77 L 291.5 76 Z " /><path fill="rgb(176,152,119)" stroke="rgb(176,152,119)" stroke-width="1" opacity="0.9921568627450981" d="M 321 76 L 327.5 77 L 366 99 Q 364.8 102 368.5 101 L 366 104.5 L 320.5 179 Q 317.2 180.1 318 177.5 Q 316.3 179.1 314.5 176 L 256 143 L 254.5 140 L 248 136.5 L 257.5 126 L 257 127.5 L 255 131.5 L 262 125.5 L 265.5 121 L 266 122.5 L 261 130.5 L 264 128.5 L 266.5 124 Q 267.9 140.1 276.5 149 L 321 76 Z " /><path fill="rgb(176,152,119)" stroke="rgb(176,152,119)" stroke-width="1" opacity="0.9921568627450981" d="M 286.5 79 L 284.5 82 L 286.5 79 Z " /><path fill="rgb(176,152,119)" stroke="rgb(176,152,119)" stroke-width="1" opacity="0.9921568627450981" d="M 277.5 88 L 275.5 91 L 277.5 88 Z " /><path fill="rgb(176,152,119)" stroke="rgb(176,152,119)" stroke-width="1" opacity="0.9921568627450981" d="M 160.5 91 L 217 165.5 L 215 165.5 Q 215.8 167.8 213.5 167 L 188.5 182 L 132.5 108 L 131 108.5 Q 132.3 105.8 133.5 108 L 136.5 105 L 160.5 91 Z " /><path fill="rgb(176,152,119)" stroke="rgb(176,152,119)" stroke-width="1" opacity="0.9921568627450981" d="M 274.5 92 L 273.5 94 L 274.5 92 Z " /><path fill="rgb(176,152,119)" stroke="rgb(176,152,119)" stroke-width="1" opacity="0.9921568627450981" d="M 266.5 111 L 267 115.5 L 266 115.5 L 266.5 111 Z " /><path fill="rgb(176,152,119)" stroke="rgb(176,152,119)" stroke-width="1" opacity="0.9921568627450981" d="M 186.5 182 L 185.5 184 L 186.5 182 Z " /><path fill="rgb(176,152,119)" stroke="rgb(176,152,119)" stroke-width="1" opacity="0.9921568627450981" d="M 407.5 210 L 447 210 L 447 242 L 368.5 243 L 367.5 244 L 356 244 L 355 241.5 L 355 213.5 L 356.5 212 L 364.5 212 L 365.5 211 L 406.5 211 L 407.5 210 Z " /><path fill="rgb(176,152,119)" stroke="rgb(176,152,119)" stroke-width="1" opacity="0.9921568627450981" d="M 65 236 L 99.5 239 L 100.5 240 L 108.5 240 L 109.5 241 L 117.5 241 L 118.5 242 L 126.5 242 L 127.5 243 L 135.5 243 L 136.5 244 L 154.5 245 L 156 246.5 L 157 249.5 L 157 278.5 Q 153.3 301.3 138.5 313 L 145 305.5 L 146 303.5 L 142.5 302 L 134.5 302 L 133.5 301 L 106.5 299 L 105.5 298 L 97.5 298 L 96.5 297 L 88.5 297 L 87.5 296 L 79.5 296 L 78.5 295 L 65 294 L 65 236 Z " /><path fill="rgb(176,152,119)" stroke="rgb(176,152,119)" stroke-width="1" opacity="0.9921568627450981" d="M 65.5 300 L 69 304.5 L 66 302.5 L 65.5 300 Z " /><path fill="rgb(176,152,119)" stroke="rgb(176,152,119)" stroke-width="1" opacity="0.9921568627450981" d="M 70.5 307 L 74.5 312 L 70.5 307 Z " /><path fill="rgb(176,152,119)" stroke="rgb(176,152,119)" stroke-width="1" opacity="0.9921568627450981" d="M 77.5 313 L 78.5 315 L 77.5 313 Z " /><path fill="rgb(176,152,119)" stroke="rgb(176,152,119)" stroke-width="1" opacity="0.9921568627450981" d="M 135.5 314 L 134.5 316 L 135.5 314 Z " /><path fill="rgb(176,152,119)" stroke="rgb(176,152,119)" stroke-width="1" opacity="0.9921568627450981" d="M 80.5 315 L 81.5 317 L 80.5 315 Z " /><path fill="rgb(176,152,119)" stroke="rgb(176,152,119)" stroke-width="1" opacity="0.9921568627450981" d="M 130.5 317 L 129.5 319 L 130.5 317 Z " /><path fill="rgb(176,152,119)" stroke="rgb(176,152,119)" stroke-width="1" opacity="0.9921568627450981" d="M 95.5 322 L 98 322.5 L 95.5 323 L 95.5 322 Z " /><path fill="rgb(176,152,119)" stroke="rgb(176,152,119)" stroke-width="1" opacity="0.9921568627450981" d="M 116.5 322 L 119 322.5 L 116.5 323 L 116.5 322 Z " /><path fill="rgb(176,152,119)" stroke="rgb(176,152,119)" stroke-width="1" opacity="0.9921568627450981" d="M 100.5 323 L 114 323.5 L 100.5 324 L 100.5 323 Z " /><path fill="rgb(176,152,119)" stroke="rgb(176,152,119)" stroke-width="1" opacity="0.9921568627450981" d="M 325.5 331 L 325 332.5 L 332.5 341 L 391.5 393 L 394 385.5 L 395 376.5 L 394 375.5 L 394 367.5 L 391 357.5 L 384 346.5 L 387.5 349 L 391 348.5 L 388 346.5 L 392.5 346 L 394.5 346 L 397.5 349 Q 405.5 347 407.5 351 L 419.5 351 L 423.5 350 L 428.5 353 L 434.5 353 L 434.5 351 L 438.5 353 L 447 353 L 447 367.5 L 445.5 369 L 395.5 398 L 394 397.5 L 393.5 399 L 390 398 L 391 400.5 L 389 400.5 Q 389.8 402.8 387.5 402 L 350.5 424 L 344 426 L 343.5 428 L 340.5 427 L 270 363.5 L 325.5 331 Z " /><path fill="rgb(176,152,119)" stroke="rgb(176,152,119)" stroke-width="1" opacity="0.9921568627450981" d="M 196.5 337 L 221 351.5 L 221 354.5 L 217 363.5 L 182.5 436 L 157 421 L 189 350.5 L 196.5 337 Z " /><path fill="rgb(0,0,0)" stroke="rgb(0,0,0)" stroke-width="1" opacity="0" d="M 0 0 L 512 0 L 512 512 L 0 512 L 0 0 Z M 256 36 L 71 143 L 69 146 L 161 198 L 256 143 L 352 198 L 442 146 Q 444 147 443 145 L 256 36 Z M 66 151 L 65 368 L 252 476 L 252 370 L 159 315 L 157 315 L 157 205 L 66 151 Z M 447 151 L 357 203 L 355 205 L 355 315 L 260 370 L 261 476 L 447 368 L 447 151 Z " /><path fill="rgb(171,144,109)" stroke="rgb(171,144,109)" stroke-width="1" opacity="0.9882352941176471" d="M 310 68 L 314 69.5 L 310 70 L 310 68 Z " /><path fill="rgb(171,144,109)" stroke="rgb(171,144,109)" stroke-width="1" opacity="0.9882352941176471" d="M 162.5 90 L 170.5 94 L 230 142.5 L 238 153.5 L 236.5 153 Q 234.3 152.3 235 154.5 L 215.5 166 Q 217.1 164.3 214 162.5 L 161 91.5 L 162.5 90 Z " /><path fill="rgb(171,144,109)" stroke="rgb(171,144,109)" stroke-width="1" opacity="0.9882352941176471" d="M 368.5 102 L 372.5 103 L 397 117 L 397.5 119 L 399 118.5 L 398.5 120 L 402 121.5 L 362 187.5 L 357 193.5 L 357.5 195 L 356 194.5 L 355.5 196 L 353.5 196 L 351.5 197 L 345.5 195 L 319 179.5 L 322 177.5 L 368.5 102 Z " /><path fill="rgb(171,144,109)" stroke="rgb(171,144,109)" stroke-width="1" opacity="0.9882352941176471" d="M 265.5 113 L 266 120.5 L 254.5 133 L 255 131.5 L 257 127.5 L 254 129.5 L 248.5 136 L 243 133.5 L 254.5 120 L 254 121.5 L 249 130.5 L 254 126.5 L 265.5 113 Z " /><path fill="rgb(171,144,109)" stroke="rgb(171,144,109)" stroke-width="1" opacity="0.9882352941176471" d="M 265.5 123 L 266 125.5 L 260.5 132 L 261 130.5 L 265.5 123 Z " /><path fill="rgb(171,144,109)" stroke="rgb(171,144,109)" stroke-width="1" opacity="0.9882352941176471" d="M 65 193 L 151.5 202 L 153 201.5 L 152.5 203 L 156 204 L 157 206.5 L 157 248.5 L 156 248.5 L 154.5 245 L 136.5 244 L 135.5 243 L 127.5 243 L 126.5 242 L 118.5 242 L 117.5 241 L 109.5 241 L 108.5 240 L 100.5 240 L 99.5 239 L 65 236 L 65 193 Z " /><path fill="rgb(171,144,109)" stroke="rgb(171,144,109)" stroke-width="1" opacity="0.9882352941176471" d="M 355.5 242 L 356 244 L 367.5 244 L 368.5 243 L 447 242 L 447 261.5 L 444.5 262 L 436.5 266 L 356 267 L 355 264.5 L 355.5 242 Z " /><path fill="rgb(171,144,109)" stroke="rgb(171,144,109)" stroke-width="1" opacity="0.9882352941176471" d="M 177.5 326 L 178.5 328 Q 180 325.5 181.5 329 L 196 337.5 L 157.5 419 L 157 415.5 L 158 414.5 L 164 366.5 L 166 359.5 L 167 346.5 L 175 328.5 L 177.5 326 Z " /><path fill="rgb(171,144,109)" stroke="rgb(171,144,109)" stroke-width="1" opacity="0.9882352941176471" d="M 268.5 364 L 274.5 367 L 340.5 427 L 343 427.5 L 341 428 Q 342.1 430.7 339.5 430 L 307.5 449 L 301.5 450 L 260 412.5 L 260 369.5 L 261.5 368 L 263.5 368 L 268.5 364 Z " /><path fill="rgb(171,144,109)" stroke="rgb(171,144,109)" stroke-width="1" opacity="0.9882352941176471" d="M 390 398 L 393 398.5 L 389.5 401 L 390 399.5 L 390 398 Z " /><path fill="rgb(171,144,109)" stroke="rgb(171,144,109)" stroke-width="1" opacity="0.9882352941176471" d="M 158.5 421 L 159.5 423 L 158.5 421 Z " /><path fill="rgb(147,126,99)" stroke="rgb(147,126,99)" stroke-width="1" opacity="0.9764705882352941" d="M 254.5 37 L 253.5 39 L 252 38.5 L 254.5 37 Z " /><path fill="rgb(147,126,99)" stroke="rgb(147,126,99)" stroke-width="1" opacity="0.9764705882352941" d="M 249.5 40 L 248.5 42 L 249.5 40 Z " /><path fill="rgb(147,126,99)" stroke="rgb(147,126,99)" stroke-width="1" opacity="0.9764705882352941" d="M 245.5 42 L 247 42.5 Q 238.5 45.5 233.5 52 L 232.5 51 L 224 59.5 L 217.5 67 L 216.5 66 L 210 72.5 L 205.5 78 L 199 83.5 L 198.5 85 L 197 84.5 L 188.5 94 L 187 94.5 L 187.5 96 Q 186.3 93.7 185 96.5 L 184 99.5 L 250.5 139 L 256 141 L 254.5 144 L 242.5 151 L 165 89.5 Q 164.3 87.3 166.5 88 L 245.5 42 Z " /><path fill="rgb(147,126,99)" stroke="rgb(147,126,99)" stroke-width="1" opacity="0.9764705882352941" d="M 445.5 262 L 444.5 264 L 355.5 315 L 355 298 L 445.5 262 Z " /><path fill="rgb(147,126,99)" stroke="rgb(147,126,99)" stroke-width="1" opacity="0.9764705882352941" d="M 156 315 L 160.5 316 L 171 322.5 L 169 329.5 L 169 335.5 L 168 336.5 L 168 342.5 L 167 343.5 L 157 420 L 152.5 419 L 136 408.5 L 137.5 409 L 143 411 L 143.5 409 L 150.5 409 L 156 407.5 L 152 405.5 L 156 405 L 156 315 Z " /><path fill="rgb(147,126,99)" stroke="rgb(147,126,99)" stroke-width="1" opacity="0.9764705882352941" d="M 122.5 400 L 123.5 402 L 122.5 400 Z " /><path fill="rgb(147,126,99)" stroke="rgb(147,126,99)" stroke-width="1" opacity="0.9764705882352941" d="M 129.5 404 L 135 407.5 L 133.5 407 Q 129.5 406.5 129.5 404 Z " /></svg>